<svg width="160" height="97" viewBox="0 0 160 97" fill="none" xmlns="http://www.w3.org/2000/svg">
<path d="M28.536 10.1355L22.779 30H19.872L15.255 14.0115L10.467 30L7.58849 30.0285L2.03099 10.1355H4.79549L9.12749 26.979L13.9155 10.1355H16.8225L21.3825 26.922L25.743 10.1355H28.536ZM46.6787 10.1355V30H44.0852V20.994H33.9677V30H31.3742V10.1355H33.9677V18.8565H44.0852V10.1355H46.6787ZM62.8491 25.5825H54.1851L52.5891 30H49.8531L57.0351 10.2495H60.0276L67.1811 30H64.4451L62.8491 25.5825ZM62.1081 23.4735L58.5171 13.4415L54.9261 23.4735H62.1081ZM82.5377 10.1355V12.2445H77.1227V30H74.5292V12.2445H69.0857V10.1355H82.5377ZM92.0286 30.1995C90.7176 30.1995 89.5396 29.9715 88.4946 29.5155C87.4686 29.0405 86.6611 28.3945 86.0721 27.5775C85.4831 26.7415 85.1791 25.782 85.1601 24.699H87.9246C88.0196 25.63 88.3996 26.4185 89.0646 27.0645C89.7486 27.6915 90.7366 28.005 92.0286 28.005C93.2636 28.005 94.2326 27.701 94.9356 27.093C95.6576 26.466 96.0186 25.668 96.0186 24.699C96.0186 23.939 95.8096 23.3215 95.3916 22.8465C94.9736 22.3715 94.4511 22.0105 93.8241 21.7635C93.1971 21.5165 92.3516 21.2505 91.2876 20.9655C89.9766 20.6235 88.9221 20.2815 88.1241 19.9395C87.3451 19.5975 86.6706 19.0655 86.1006 18.3435C85.5496 17.6025 85.2741 16.6145 85.2741 15.3795C85.2741 14.2965 85.5496 13.337 86.1006 12.501C86.6516 11.665 87.4211 11.019 88.4091 10.563C89.4161 10.107 90.5656 9.879 91.8576 9.879C93.7196 9.879 95.2396 10.3445 96.4176 11.2755C97.6146 12.2065 98.2891 13.4415 98.4411 14.9805H95.5911C95.4961 14.2205 95.0971 13.5555 94.3941 12.9855C93.6911 12.3965 92.7601 12.102 91.6011 12.102C90.5181 12.102 89.6346 12.387 88.9506 12.957C88.2666 13.508 87.9246 14.287 87.9246 15.294C87.9246 16.016 88.1241 16.605 88.5231 17.061C88.9411 17.517 89.4446 17.8685 90.0336 18.1155C90.6416 18.3435 91.4871 18.6095 92.5701 18.9135C93.8811 19.2745 94.9356 19.6355 95.7336 19.9965C96.5316 20.3385 97.2156 20.88 97.7856 21.621C98.3556 22.343 98.6406 23.331 98.6406 24.585C98.6406 25.554 98.3841 26.466 97.8711 27.321C97.3581 28.176 96.5981 28.8695 95.5911 29.4015C94.5841 29.9335 93.3966 30.1995 92.0286 30.1995ZM122.282 10.1355V12.2445H116.867V30H114.273V12.2445H108.83V10.1355H122.282ZM140.779 10.1355V30H138.185V20.994H128.068V30H125.474V10.1355H128.068V18.8565H138.185V10.1355H140.779ZM147.801 12.2445V18.885H155.04V21.0225H147.801V27.8625H155.895V30H145.207V10.107H155.895V12.2445H147.801Z" fill="url(#paint0_angular_840_486)"/>
<path d="M41.1673 44.304V78H32.9593V57.792L25.4233 78H18.7993L11.2153 57.744V78H3.00725V44.304H12.7032L22.1593 67.632L31.5193 44.304H41.1673ZM119.389 44.304L107.437 78H97.1653L85.2133 44.304H93.9493L102.301 69.744L110.701 44.304H119.389ZM131.028 44.304V78H122.82V44.304H131.028ZM145.184 50.88V57.696H156.176V64.032H145.184V71.424H157.616V78H136.976V44.304H157.616V50.88H145.184Z" fill="url(#paint1_angular_840_486)"/>
<path fill-rule="evenodd" clip-rule="evenodd" d="M47 62.4419C47 52.1925 55.3088 43.8837 65.5581 43.8837C75.8075 43.8837 84.1163 52.1925 84.1163 62.4419C84.1163 72.6912 75.8075 81 65.5581 81C55.3088 81 47 72.6912 47 62.4419ZM69.9767 52.7209C69.9767 50.2806 67.9985 48.3023 65.5581 48.3023C63.1178 48.3023 61.1395 50.2806 61.1395 52.7209C61.1395 55.1613 63.1178 57.1395 65.5581 57.1395C67.9985 57.1395 69.9767 55.1613 69.9767 52.7209ZM60.2558 62.4419C60.2558 60.0015 58.2775 58.0233 55.8372 58.0233C53.3969 58.0233 51.4186 60.0015 51.4186 62.4419C51.4186 64.8822 53.3969 66.8605 55.8372 66.8605C58.2775 66.8605 60.2558 64.8822 60.2558 62.4419ZM79.6977 62.4419C79.6977 60.0015 77.7194 58.0233 75.2791 58.0233C72.8387 58.0233 70.8605 60.0015 70.8605 62.4419C70.8605 64.8822 72.8387 66.8605 75.2791 66.8605C77.7194 66.8605 79.6977 64.8822 79.6977 62.4419ZM67.7674 62.4419C67.7674 61.2217 66.7783 60.2326 65.5581 60.2326C64.338 60.2326 63.3488 61.2217 63.3488 62.4419C63.3488 63.6621 64.338 64.6512 65.5581 64.6512C66.7783 64.6512 67.7674 63.6621 67.7674 62.4419ZM69.9767 72.1628C69.9767 69.7225 67.9985 67.7442 65.5581 67.7442C63.1178 67.7442 61.1395 69.7225 61.1395 72.1628C61.1395 74.6031 63.1178 76.5814 65.5581 76.5814C67.9985 76.5814 69.9767 74.6031 69.9767 72.1628Z" fill="url(#paint2_angular_840_486)"/>
<defs>
<radialGradient id="paint0_angular_840_486" cx="0" cy="0" r="1" gradientUnits="userSpaceOnUse" gradientTransform="translate(79.5 20.5) scale(122.656 87.1506)">
<stop stop-color="#FFF5D4"/>
<stop offset="1" stop-color="#FDD59D"/>
</radialGradient>
<radialGradient id="paint1_angular_840_486" cx="0" cy="0" r="1" gradientUnits="userSpaceOnUse" gradientTransform="translate(80 61.5) scale(125 150.919)">
<stop stop-color="#FFF5D4"/>
<stop offset="1" stop-color="#FDD59D"/>
</radialGradient>
<radialGradient id="paint2_angular_840_486" cx="0" cy="0" r="1" gradientUnits="userSpaceOnUse" gradientTransform="translate(66 62) scale(29.6875 80.7737)">
<stop stop-color="#FFF5D4"/>
<stop offset="1" stop-color="#FDD59D"/>
</radialGradient>
</defs>
</svg>
