<svg width="428" height="804" viewBox="0 0 428 804" fill="none" xmlns="http://www.w3.org/2000/svg">
<rect width="428" height="804" fill="#066867"/>
<path d="M162.536 359.135L156.779 379H153.872L149.255 363.011L144.467 379L141.588 379.029L136.031 359.135H138.795L143.127 375.979L147.915 359.135H150.822L155.382 375.922L159.743 359.135H162.536ZM180.679 359.135V379H178.085V369.994H167.968V379H165.374V359.135H167.968V367.856H178.085V359.135H180.679ZM196.849 374.582H188.185L186.589 379H183.853L191.035 359.249H194.028L201.181 379H198.445L196.849 374.582ZM196.108 372.473L192.517 362.441L188.926 372.473H196.108ZM216.538 359.135V361.244H211.123V379H208.529V361.244H203.086V359.135H216.538ZM226.029 379.2C224.718 379.2 223.54 378.971 222.495 378.515C221.469 378.04 220.661 377.394 220.072 376.577C219.483 375.741 219.179 374.782 219.16 373.699H221.925C222.02 374.63 222.4 375.418 223.065 376.064C223.749 376.691 224.737 377.005 226.029 377.005C227.264 377.005 228.233 376.701 228.936 376.093C229.658 375.466 230.019 374.668 230.019 373.699C230.019 372.939 229.81 372.321 229.392 371.846C228.974 371.371 228.451 371.01 227.824 370.763C227.197 370.516 226.352 370.25 225.288 369.965C223.977 369.623 222.922 369.281 222.124 368.939C221.345 368.597 220.671 368.065 220.101 367.343C219.55 366.602 219.274 365.614 219.274 364.379C219.274 363.296 219.55 362.337 220.101 361.501C220.652 360.665 221.421 360.019 222.409 359.563C223.416 359.107 224.566 358.879 225.858 358.879C227.72 358.879 229.24 359.344 230.418 360.275C231.615 361.206 232.289 362.441 232.441 363.98H229.591C229.496 363.22 229.097 362.555 228.394 361.985C227.691 361.396 226.76 361.102 225.601 361.102C224.518 361.102 223.635 361.387 222.951 361.957C222.267 362.508 221.925 363.287 221.925 364.294C221.925 365.016 222.124 365.605 222.523 366.061C222.941 366.517 223.445 366.868 224.034 367.115C224.642 367.343 225.487 367.609 226.57 367.913C227.881 368.274 228.936 368.635 229.734 368.996C230.532 369.338 231.216 369.88 231.786 370.621C232.356 371.343 232.641 372.331 232.641 373.585C232.641 374.554 232.384 375.466 231.871 376.321C231.358 377.176 230.598 377.869 229.591 378.401C228.584 378.933 227.397 379.2 226.029 379.2ZM256.282 359.135V361.244H250.867V379H248.273V361.244H242.83V359.135H256.282ZM274.779 359.135V379H272.185V369.994H262.068V379H259.474V359.135H262.068V367.856H272.185V359.135H274.779ZM281.801 361.244V367.885H289.04V370.022H281.801V376.862H289.895V379H279.207V359.107H289.895V361.244H281.801Z" fill="url(#paint0_angular_840_452)"/>
<path d="M175.167 393.304V427H166.959V406.792L159.423 427H152.799L145.215 406.744V427H137.007V393.304H146.703L156.159 416.632L165.519 393.304H175.167ZM253.389 393.304L241.437 427H231.165L219.213 393.304H227.949L236.301 418.744L244.701 393.304H253.389ZM265.028 393.304V427H256.82V393.304H265.028ZM279.184 399.88V406.696H290.176V413.032H279.184V420.424H291.616V427H270.976V393.304H291.616V399.88H279.184Z" fill="url(#paint1_angular_840_452)"/>
<path fill-rule="evenodd" clip-rule="evenodd" d="M181 411.442C181 401.192 189.309 392.884 199.558 392.884C209.808 392.884 218.116 401.192 218.116 411.442C218.116 421.691 209.808 430 199.558 430C189.309 430 181 421.691 181 411.442ZM203.977 401.721C203.977 399.281 201.998 397.302 199.558 397.302C197.118 397.302 195.14 399.281 195.14 401.721C195.14 404.161 197.118 406.14 199.558 406.14C201.998 406.14 203.977 404.161 203.977 401.721ZM194.256 411.442C194.256 409.002 192.278 407.023 189.837 407.023C187.397 407.023 185.419 409.002 185.419 411.442C185.419 413.882 187.397 415.86 189.837 415.86C192.278 415.86 194.256 413.882 194.256 411.442ZM213.698 411.442C213.698 409.002 211.719 407.023 209.279 407.023C206.839 407.023 204.86 409.002 204.86 411.442C204.86 413.882 206.839 415.86 209.279 415.86C211.719 415.86 213.698 413.882 213.698 411.442ZM201.767 411.442C201.767 410.222 200.778 409.233 199.558 409.233C198.338 409.233 197.349 410.222 197.349 411.442C197.349 412.662 198.338 413.651 199.558 413.651C200.778 413.651 201.767 412.662 201.767 411.442ZM203.977 421.163C203.977 418.722 201.998 416.744 199.558 416.744C197.118 416.744 195.14 418.722 195.14 421.163C195.14 423.603 197.118 425.581 199.558 425.581C201.998 425.581 203.977 423.603 203.977 421.163Z" fill="url(#paint2_angular_840_452)"/>
<path d="M16 288L16 322.556H46.4759V288H16Z" fill="#418B8A"/>
<path d="M137.904 288V322.556H168.379V288H137.904Z" fill="#418B8A"/>
<path d="M76.9519 288V322.556H107.428V288H76.9519Z" fill="#418B8A"/>
<path d="M198.855 288V322.556H229.331V288H198.855Z" fill="#418B8A"/>
<path d="M259.807 288V322.556H290.283V288H259.807Z" fill="#418B8A"/>
<path d="M320.759 288V322.556H351.235V288H320.759Z" fill="#418B8A"/>
<path d="M381.711 288V322.556H412.187V288H381.711Z" fill="#418B8A"/>
<path d="M16 472.444L16 507H46.4759V472.444H16Z" fill="#418B8A"/>
<path d="M137.904 472.444V507H168.379V472.444H137.904Z" fill="#418B8A"/>
<path d="M76.9519 472.444V507H107.428V472.444H76.9519Z" fill="#418B8A"/>
<path d="M198.855 472.444V507H229.331V472.444H198.855Z" fill="#418B8A"/>
<path d="M259.807 472.444V507H290.283V472.444H259.807Z" fill="#418B8A"/>
<path d="M320.759 472.444V507H351.235V472.444H320.759Z" fill="#418B8A"/>
<path d="M381.711 472.444V507H412.187V472.444H381.711Z" fill="#418B8A"/>
<defs>
<radialGradient id="paint0_angular_840_452" cx="0" cy="0" r="1" gradientUnits="userSpaceOnUse" gradientTransform="translate(213.5 369.5) scale(122.656 87.1506)">
<stop stop-color="#FFF5D4"/>
<stop offset="1" stop-color="#FDD59D"/>
</radialGradient>
<radialGradient id="paint1_angular_840_452" cx="0" cy="0" r="1" gradientUnits="userSpaceOnUse" gradientTransform="translate(214 410.5) scale(125 150.919)">
<stop stop-color="#FFF5D4"/>
<stop offset="1" stop-color="#FDD59D"/>
</radialGradient>
<radialGradient id="paint2_angular_840_452" cx="0" cy="0" r="1" gradientUnits="userSpaceOnUse" gradientTransform="translate(200 411) scale(29.6875 80.7737)">
<stop stop-color="#FFF5D4"/>
<stop offset="1" stop-color="#FDD59D"/>
</radialGradient>
</defs>
</svg>
